<?xml version="1.0" encoding="utf-8"?>
<!-- Generator: Adobe Illustrator 26.3.1, SVG Export Plug-In . SVG Version: 6.00 Build 0)  -->
<svg version="1.1" id="图层_1" xmlns="http://www.w3.org/2000/svg" xmlns:xlink="http://www.w3.org/1999/xlink" x="0px" y="0px"
	 viewBox="0 0 246.31 26" style="enable-background:new 0 0 246.31 26;" xml:space="preserve">
<g>
	<path d="M114.24,2.38c-0.58-0.49-1.33-0.88-2.21-1.15c-0.85-0.26-1.77-0.4-2.73-0.4H102V20.6h2.75v-8.2h4.55
		c0.96,0,1.87-0.13,2.73-0.4c0.81-0.25,1.57-0.64,2.2-1.14c0.61-0.49,1.1-1.1,1.49-1.88c0.34-0.72,0.51-1.51,0.51-2.36
		c0-0.87-0.17-1.67-0.51-2.4C115.33,3.43,114.84,2.83,114.24,2.38z M109.31,9.69h-4.55V3.53h4.55c0.64,0,1.29,0.09,1.88,0.26
		c0.51,0.16,0.96,0.39,1.31,0.67c0.3,0.23,0.52,0.52,0.7,0.9c0.18,0.4,0.27,0.81,0.27,1.25c0,0.44-0.09,0.84-0.27,1.22
		c-0.18,0.4-0.41,0.69-0.74,0.93c-0.31,0.27-0.77,0.51-1.27,0.67C110.6,9.6,109.95,9.69,109.31,9.69z"/>
	<polygon points="117.98,6.32 122.17,4.36 122.17,20.46 125.03,20.46 125.03,0 117.98,3.29 	"/>
	<path d="M142.28,9.05l-0.39-0.14c-0.13-0.05-0.24-0.09-0.35-0.13l-0.49-0.2c-1.82-0.69-3.45-1.43-3.33-2.91
		c0.17-2.39,3.39-2.44,3.43-2.44c2,0,3.35,0.8,4.01,2.38l0.09,0.23l2.56-1.01l-0.1-0.23c-1.08-2.62-3.41-4.06-6.56-4.06
		c-4,0-6.01,2.56-6.18,4.94c-0.28,3.63,3.33,4.99,5.07,5.64l0.07,0.02c0.14,0.05,0.27,0.09,0.38,0.15c0.18,0.08,0.38,0.15,0.61,0.22
		l0.27,0.09c2.2,0.77,4.18,1.63,4.23,3.68c0.02,0.74-0.23,1.36-0.75,1.85c-0.79,0.73-2.1,1.14-3.49,1.09
		c-0.89-0.05-3.86-0.46-4.68-3.5l-0.06-0.24l-2.66,0.71l0.07,0.24c0.86,3.17,3.69,5.33,7.22,5.5h0.43c2.04,0,3.86-0.66,5.11-1.86
		c1.09-1.06,1.63-2.39,1.58-3.85C148.23,11.08,144.2,9.71,142.28,9.05z"/>
	<path d="M161.38,6.55c-0.86-0.37-1.86-0.57-2.9-0.57c0,0,0,0,0,0c-0.97,0.03-1.94,0.26-2.81,0.66c-0.79,0.38-1.52,0.92-2.19,1.62
		V6.23h-2.75V26h2.75v-7.53c0.63,0.68,1.38,1.23,2.19,1.58c0.87,0.43,1.85,0.66,2.81,0.66c0.95,0.03,1.95-0.16,2.89-0.54
		c0.89-0.37,1.71-0.93,2.39-1.62c1.34-1.38,2.11-3.27,2.11-5.19c0-1.95-0.77-3.84-2.11-5.18C163.09,7.48,162.27,6.92,161.38,6.55z
		 M163.13,13.36c0,1.2-0.5,2.39-1.38,3.27c-0.44,0.45-0.95,0.79-1.48,0.99c-0.55,0.25-1.16,0.39-1.78,0.39
		c-1.28,0.03-2.54-0.42-3.45-1.23l0,0c-0.97-0.84-1.55-2.12-1.55-3.42c0-1.3,0.59-2.62,1.55-3.44c0.91-0.79,2.12-1.23,3.35-1.23
		c0.04,0,0.07,0,0.11,0c1.22,0.03,2.41,0.54,3.27,1.42C162.63,10.94,163.13,12.13,163.13,13.36z"/>
	<path d="M174.96,5.98c-4.07,0-7.38,3.31-7.38,7.38c0,4.05,3.54,7.35,7.89,7.35c2.64,0,5.09-1.21,6.53-3.24l0.18-0.25l-2.54-1.14
		l-0.12,0.14c-0.96,1.12-2.47,1.78-4.05,1.78c-2.27,0-4.29-1.39-4.93-3.35h11.66l0.04-0.28c0.05-0.34,0.1-0.66,0.1-1.01
		C182.35,9.29,179.03,5.98,174.96,5.98z M174.96,8.68c2.08,0,3.86,1.38,4.43,3.38h-8.86C171.1,10.06,172.88,8.68,174.96,8.68z"/>
	<path d="M191.43,5.98c-4.07,0-7.38,3.31-7.38,7.38c0,4.05,3.54,7.35,7.89,7.35c2.64,0,5.09-1.21,6.53-3.24l0.18-0.25l-2.54-1.14
		l-0.12,0.14c-0.96,1.12-2.47,1.78-4.05,1.78c-2.27,0-4.29-1.39-4.93-3.35h11.66l0.04-0.28c0.05-0.34,0.1-0.66,0.1-1.01
		C198.81,9.29,195.5,5.98,191.43,5.98z M191.43,8.68c2.08,0,3.86,1.38,4.43,3.38H187C187.57,10.06,189.35,8.68,191.43,8.68z"/>
	<path d="M212.95,8.28c-0.61-0.67-1.37-1.23-2.2-1.65c-0.89-0.4-1.87-0.63-2.84-0.65c-1.02,0-2.01,0.19-2.86,0.54
		c-0.88,0.38-1.69,0.94-2.41,1.65c-1.35,1.39-2.11,3.28-2.08,5.18c-0.03,1.91,0.73,3.8,2.09,5.19c0.74,0.73,1.55,1.27,2.41,1.62
		c0.86,0.36,1.78,0.54,2.67,0.54c0.06,0,0.12,0,0.19,0c0.97,0,1.95-0.23,2.84-0.66c0.81-0.37,1.56-0.93,2.19-1.62v2.05h2.75V0.72
		h-2.75V8.28z M212.95,13.36c0,1.29-0.59,2.56-1.58,3.42c-0.89,0.8-2.07,1.23-3.34,1.23c-0.63,0-1.25-0.11-1.87-0.37
		c-0.52-0.22-1.03-0.56-1.5-1.02c-0.87-0.87-1.37-2.06-1.37-3.26c0-1.23,0.5-2.42,1.37-3.26c0.88-0.87,2.07-1.39,3.26-1.41
		c1.24-0.03,2.51,0.42,3.45,1.23C212.35,10.75,212.95,12.07,212.95,13.36z"/>
	<polygon points="0,5.3 0,8.09 0,20.59 2.78,20.59 2.78,8.09 10.23,8.09 10.23,5.3 2.78,5.3 	"/>
	<rect x="47.3" y="0.21" width="2.78" height="20.38"/>
	<path d="M41.73,7.17c0,0-0.88-1.18-2.63-1.82c-0.82-0.28-1.7-0.44-2.62-0.44c-4.44,0-8.04,3.6-8.04,8.04s3.6,8.04,8.04,8.04
		c0.92,0,1.8-0.16,2.62-0.44c1.75-0.64,2.63-1.82,2.63-1.82v1.86h2.78V5.3h-2.78V7.17z M36.47,18.27c-2.94,0-5.32-2.38-5.32-5.32
		s2.38-5.32,5.32-5.32c2.94,0,5.32,2.38,5.32,5.32S39.41,18.27,36.47,18.27z"/>
	<path d="M69.04,4.91L69.04,4.91c-2.11,0-3.91,1.06-4.99,2.67c-0.91-1.61-2.49-2.67-4.6-2.67c-1.62,0-2.9,0.68-3.8,1.75V5.3h-2.78
		v15.29h2.78v-9.2c0-0.71,0.1-1.26,0.27-1.67c0.52-1.23,1.74-2.09,3.15-2.09c1.42,0,2.63,0.86,3.15,2.09
		c0.17,0.41,0.27,0.96,0.27,1.67v9.2h2.78h0v-9.2c0-0.71,0.1-1.26,0.27-1.67c0.52-1.23,1.74-2.09,3.15-2.09
		c1.42,0,2.63,0.86,3.15,2.09c0.17,0.41,0.27,0.96,0.27,1.67v9.2h2.78v-8.77c0-1.35-0.18-2.54-0.52-3.34
		C73.5,6.37,71.53,4.91,69.04,4.91z"/>
	<path d="M13.17,7.21c-3.07,3.09-3.07,8.38,0,11.47c1.55,1.53,3.64,2.3,5.74,2.3c2.26,0,4.52-0.77,6.19-2.3
		c0.48-0.44,0.88-0.94,1.22-1.46l-2.5-1.45c-0.22,0.35-0.49,0.67-0.8,0.97c-1.11,1.02-2.6,1.52-4.1,1.52c-1.39,0-2.78-0.51-3.8-1.52
		c-0.71-0.71-1.16-1.61-1.38-2.55h10.36h2.46h0.29c0.37-2.49-0.36-5.13-2.2-6.98C21.55,4.14,16.27,4.14,13.17,7.21z M13.73,11.7
		c0.21-0.95,0.67-1.84,1.38-2.55c2.05-2.03,5.55-2.03,7.6,0c0.71,0.71,1.17,1.61,1.38,2.55H13.73z"/>
	<path d="M78.94,7.21c-3.07,3.09-3.07,8.38,0,11.47c1.55,1.53,3.64,2.3,5.74,2.3c2.26,0,4.52-0.77,6.19-2.3
		c0.48-0.44,0.88-0.94,1.22-1.46l-2.5-1.45c-0.22,0.35-0.49,0.67-0.8,0.97c-1.11,1.02-2.6,1.52-4.1,1.52c-1.39,0-2.78-0.51-3.8-1.52
		c-0.71-0.71-1.16-1.61-1.38-2.55h10.36h2.46h0.29c0.37-2.49-0.36-5.13-2.2-6.98C87.32,4.14,82.03,4.14,78.94,7.21z M79.49,11.7
		c0.21-0.95,0.67-1.84,1.38-2.55c2.05-2.03,5.55-2.03,7.6,0c0.71,0.71,1.17,1.61,1.38,2.55H79.49z"/>
	<path d="M231.63,6.57c-0.58-0.47-1.27-0.67-2.21-0.67h-0.86l0.3-1.97h3.5V2.8h-4.56l-0.65,4.26h2.27c0.82,0,1.17,0.19,1.43,0.39
		c0.37,0.3,0.58,0.74,0.58,1.19c0,0.88-0.76,1.6-1.71,1.6c-0.95,0-1.73-0.71-1.73-1.6V8.55h-1.21v0.09c0,1.51,1.32,2.74,2.94,2.74
		s2.92-1.23,2.92-2.74C232.65,7.84,232.28,7.1,231.63,6.57z"/>
	<path d="M242.03,6.43h-3.2l-1.17,1.14h3.22c-0.28,1.53-1.62,2.66-3.16,2.66c-1.77,0-3.2-1.45-3.2-3.24s1.43-3.22,3.2-3.22
		c0.86,0,1.69,0.35,2.29,0.97l0.07,0.07l0.84-0.82l-0.07-0.07c-0.86-0.84-1.95-1.3-3.13-1.3c-2.42,0-4.37,1.95-4.37,4.37
		s1.95,4.37,4.37,4.37c2.42,0,4.39-1.95,4.39-4.37c-0.02-0.15-0.04-0.3-0.06-0.47L242.03,6.43z"/>
	<path d="M239.52,0.21h-11.63c-3.76,0-6.79,3.03-6.79,6.79c0,3.76,3.03,6.79,6.79,6.79h11.63c3.76,0,6.79-3.03,6.79-6.79
		C246.31,3.24,243.26,0.21,239.52,0.21z M239.52,13.05h-11.63c-3.33,0-6.05-2.72-6.05-6.05c0-3.33,2.72-6.05,6.05-6.05h11.63
		c3.33,0,6.05,2.72,6.05,6.05C245.57,10.33,242.85,13.05,239.52,13.05z"/>
</g>
</svg>
